<svg xmlns="http://www.w3.org/2000/svg" width="129.304" height="149.531" viewBox="0 0 129.304 149.531">
  <g id="Group_7471" data-name="Group 7471" transform="translate(-603.539 -101.227)">
    <path id="Path_2265" data-name="Path 2265" d="M5.361,0h56.53c2.233,0,2.674.247,5.171,2.625S77.624,13.563,79,15.048c1.97,2.13,2,2.076,2,5.634V86.34c0,1.652,0,2.657-1.327,3.9l-3.2,2.986c-1.507,1.408-2.343,1.463-3.789,0-1.135-1.148-7.12-7.34-8.266-8.515s-1.234-1.211-2.469,0-7.425,7.307-8.586,8.446c-1.488,1.46-2.245,1.506-3.774,0-1.122-1.105-7.347-7.262-8.547-8.446s-1.179-1.19-2.328,0-7.181,7.365-8.3,8.518c-1.336,1.381-2.13,1.363-3.448,0-.839-.868-6.944-7.243-8.177-8.518s-1.272-1.17-2.415,0-6.413,6.573-8.272,8.464c-1.472,1.5-2.2,1.5-3.794,0-.694-.654-1.711-1.663-3.034-2.909A4.255,4.255,0,0,1-.117,86.5c0-1.3.085-62.6.11-81.495A5.168,5.168,0,0,1,5.361,0Z" transform="translate(631.617 155)" fill="#fff" stroke="#e12027" stroke-width="3"/>
    <g id="Group_7470" data-name="Group 7470" transform="translate(1 -0.392)">
      <path id="Union_18" data-name="Union 18" d="M6.5,14.028a1,1,0,0,1-1-1v-4.5L1.043,8.505a1.012,1.012,0,0,1-1.005-1l0-1a.987.987,0,0,1,.995-1l4.47.022v-4.5a1,1,0,0,1,1-1h1a1,1,0,0,1,1,1V5.543l4.526.023a1.012,1.012,0,0,1,1,1.005l.005,1a.988.988,0,0,1-.994,1L8.5,8.543v4.485a1,1,0,0,1-1,1Z" transform="translate(655.9 172.957) rotate(45)" fill="#e12027"/>
      <path id="Union_19" data-name="Union 19" d="M6.5,14.028a1,1,0,0,1-1-1v-4.5L1.043,8.505a1.012,1.012,0,0,1-1.005-1l0-1a.987.987,0,0,1,.995-1l4.47.022v-4.5a1,1,0,0,1,1-1h1a1,1,0,0,1,1,1V5.543l4.526.023a1.012,1.012,0,0,1,1,1.005l.005,1a.988.988,0,0,1-.994,1L8.5,8.543v4.485a1,1,0,0,1-1,1Z" transform="translate(685.895 172.957) rotate(45)" fill="#e12027"/>
    </g>
    <g id="Group_7473" data-name="Group 7473" transform="translate(-1 0.608)">
      <g id="Rectangle_3911" data-name="Rectangle 3911" transform="translate(680 200)" fill="#fff" stroke="#e12027" stroke-width="3">
        <path d="M0,0H16.15A.85.85,0,0,1,17,.85V6.5A8.5,8.5,0,0,1,8.5,15h0A8.5,8.5,0,0,1,0,6.5V0A0,0,0,0,1,0,0Z" stroke="none"/>
        <path d="M2.735,1.5H15.088a.412.412,0,0,1,.412.412V6.5a7,7,0,0,1-7,7h0a7,7,0,0,1-7-7V2.735A1.235,1.235,0,0,1,2.735,1.5Z" fill="none"/>
      </g>
      <rect id="Rectangle_3912" data-name="Rectangle 3912" width="3" height="6" rx="1" transform="translate(687 202)" fill="#e12027"/>
      <path id="Path_2274" data-name="Path 2274" d="M2,0H48a1,1,0,0,1,1,1V3H2A1,1,0,0,1,1,2V1A1,1,0,0,1,2,0Z" transform="translate(648 200)" fill="#e12027"/>
    </g>
    <path id="Path_2266" data-name="Path 2266" d="M609,187c8.167,10.833,22.333,8.667,22.333,8.667" fill="none" stroke="#e12027" stroke-width="3"/>
    <path id="Rectangle_3913" data-name="Rectangle 3913" d="M2,0H35a2,2,0,0,1,2,2V21a2,2,0,0,1-2,2H0a0,0,0,0,1,0,0V2A2,2,0,0,1,2,0Z" transform="translate(633.659 103.082) rotate(16)" fill="#fff" stroke="#e12027" stroke-width="3"/>
    <path id="Path_2271" data-name="Path 2271" d="M-6.31-4.228h1.289V-2.47H-6.31V0H-8.583V-2.47h-4.64l-.1-1.367,4.718-7.538h2.3Zm-4.89,0h2.617v-4.1l-.047-.016-.18.321Zm15.045-.2A5.016,5.016,0,0,1,2.81-1.005,3.553,3.553,0,0,1,.01.162,3.583,3.583,0,0,1-2.81-1.005,5,5,0,0,1-3.849-4.431V-6.938a5.034,5.034,0,0,1,1.035-3.425A3.551,3.551,0,0,1-.006-11.539,3.565,3.565,0,0,1,2.8-10.363,5.009,5.009,0,0,1,3.845-6.938ZM1.572-7.175a3.736,3.736,0,0,0-.406-1.978A1.312,1.312,0,0,0-.006-9.782a1.3,1.3,0,0,0-1.172.624,3.794,3.794,0,0,0-.4,1.982v2.958a3.8,3.8,0,0,0,.4,2A1.319,1.319,0,0,0,.01-1.6a1.3,1.3,0,0,0,1.164-.624,3.833,3.833,0,0,0,.4-2ZM12.047-4.228h1.289V-2.47H12.047V0H9.774V-2.47H5.134l-.1-1.367,4.718-7.538h2.3Zm-4.89,0H9.774v-4.1l-.047-.016-.18.321Z" transform="translate(646.653 124.825) rotate(16)" fill="#e12027"/>
    <path id="Path_2269" data-name="Path 2269" d="M1.164,1.069h1a1,1,0,0,1,1,1L3,86a1,1,0,0,1-1,1H1a1,1,0,0,1-1-1L.164,2.069A1,1,0,0,1,1.164,1.069Z" transform="matrix(0.961, 0.276, -0.276, 0.961, 627.52, 118.495)" fill="#e12027"/>
    <path id="Path_2270" data-name="Path 2270" d="M-1.383-.294h3A31.02,31.02,0,0,0,.575,10.43a27.727,27.727,0,0,0,2.778,9.1.921.921,0,0,1-.31,1.273L1.9,21.347c-.673.269-1.095-.137-1.447-.793a22.989,22.989,0,0,1-2.7-8.559C-2.848,6.85-1.383-.294-1.383-.294Z" transform="matrix(0.545, -0.839, 0.839, 0.545, 712.974, 195.901)" fill="#e12027"/>
  </g>
</svg>
