<?xml version="1.0" encoding="UTF-8"?>
<!DOCTYPE svg PUBLIC "-//W3C//DTD SVG 1.1//EN" "http://www.w3.org/Graphics/SVG/1.1/DTD/svg11.dtd">
<svg xmlns="http://www.w3.org/2000/svg" xml:space="preserve" width="512px" height="128px" version="1.1" style="shape-rendering:geometricPrecision; text-rendering:geometricPrecision; image-rendering:optimizeQuality; fill-rule:evenodd; clip-rule:evenodd"
viewBox="0 0 512 128"
 xmlns:xlink="http://www.w3.org/1999/xlink">
 <defs>
  <style type="text/css">
   <![CDATA[
    .fil0 {fill:none}
    .fil1 {fill:#35B1F6}
    .fil2 {fill:#DBE0E0}
   ]]>
  </style>
 </defs>
 <g id="Layer_x0020_1">
  <rect class="fil0" x="-0.01" width="512" height="128"/>
  <g id="_1994025058384">
   <path class="fil1" d="M359.17 56.15c-12.76,0 -17.19,16.09 -9.39,24.27 5.02,5.32 13.64,5.23 18.64,-0.06 7.78,-8.3 3.3,-24.21 -9.25,-24.21zm-12.59 -28.23l-11.98 0 0 66.25 11.98 0 0 -5.09c15.76,14.94 37.58,1.59 37.58,-18.74 0,-21.09 -22.24,-33.96 -37.58,-18.73l0 -23.69zm155.42 25.18l-7.42 7.46c-2.53,-2.53 -7.71,-6.36 -11.35,-3.64 -5.99,4.44 13.09,9.79 17.09,15.25 4.23,5.82 3.2,14.13 -2.1,18.92 -8.27,7.51 -22.62,4.82 -29.28,-3.92l7.4 -8.04c2.89,3.35 9.68,7.66 13.84,4.35 8.76,-6.87 -19.44,-9.67 -19.44,-24.64 0,-15.4 21.88,-18.31 31.26,-5.74zm-76.53 10.69c-3.5,-11.53 -20.34,-12.21 -26.03,0l26.03 0zm11.94 9.37l-38.52 0c2.02,12.39 16.92,14.54 25.17,6.44l10.06 4.76c-13.34,19.01 -46.85,11.75 -46.85,-14.31 0,-23.45 27.75,-33.78 43.11,-18.17 5.99,6.1 7.19,13.1 7.03,21.28zm5.59 -26.83l10.36 0 0 6.08c2.92,-6.23 9.05,-9.07 15.31,-6.02l-3.72 10.36c-3.56,-1.8 -6.04,-1.38 -8.11,2.37 -2.87,5.13 -1.86,27.98 -1.86,35.05l-11.98 0 0 -47.84zm-226.12 7.1c0,1.45 0.74,2.72 1.87,3.47l0 4.68c0,3.03 4.59,3.04 4.59,0l0 -4.68c1.12,-0.75 1.86,-2.02 1.86,-3.47 0,-5.47 -8.32,-5.48 -8.32,0zm30.06 17.27c-14.02,-3.48 -29,-4.05 -43.23,-1.75 -0.5,5.39 1.86,10.38 5.67,13.78 -1.9,2.32 -3.16,5.05 -3.8,7.98 -19.76,-14.71 -9.6,-46.7 15.46,-46.7 14.86,0 26.05,11.99 25.9,26.69zm6.38 -24.37l11.98 0 0 5.58c8.11,-8.92 22.97,-9.71 29.03,1.91 7.22,-10.69 25.18,-12.42 30.73,-0.1 2.91,6.61 1.69,32.06 1.69,40.45l-11.98 0 0 -24.18c0,-6.02 -0.34,-13.84 -8.18,-13.84 -9.21,0 -10.47,9.26 -10.47,16.52l0 21.5 -11.98 0 0 -23.08c0,-6.14 -0.31,-14.94 -8.44,-14.94 -9.27,0 -10.4,9.79 -10.4,16.82l0 21.2 -11.98 0 0 -47.84zm-137.99 0l11.98 0 0 5.58c8.29,-9.14 22.99,-9.66 29.03,1.91 7.25,-10.73 25.19,-12.4 30.72,-0.1 2.92,6.6 1.7,32.07 1.7,40.45l-11.99 0 0 -24.17c0,-6.03 -0.33,-13.85 -8.18,-13.85 -9.2,0 -10.47,9.26 -10.47,16.52l0 21.5 -11.98 0 0 -23.08c0,-6.03 -0.25,-14.94 -8.44,-14.94 -9.27,0 -10.39,9.8 -10.39,16.82l0 21.2 -11.98 0 0 -47.84z"/>
   <path class="fil2" d="M234.93 77.74c2.06,0.61 3.82,2.06 5,4.02 2.28,-1.71 4.15,-3.56 6.16,-5.21 -4.46,16.88 -23.78,24.23 -38.38,15.58 0.96,-5.99 4.86,-10.78 9.91,-12.3 -3.36,-3.09 -1.22,-8.79 3.42,-8.79 4.64,0 6.77,5.7 3.42,8.79 0.64,0.19 1.26,0.44 1.86,0.73 1.12,-1.35 2.55,-2.34 4.16,-2.82 -2.18,-2.01 -0.8,-5.72 2.22,-5.72 3.02,0 4.41,3.71 2.23,5.72z"/>
   <path class="fil2" d="M83.52 75.07c1.28,-3.86 6.05,-14.3 10.46,-14.3 3.71,0 -4.15,14.12 -10.46,14.3zm-0.58 2.46c7.25,3.28 15.08,-3.99 15.94,-11.45 1.97,-15.46 -17.66,-17.26 -24.48,7.2 -19.15,36.81 -7.5,-8.5 -2.08,-14.15 2.6,-2.61 -5.41,-4.25 -7.03,-4.25 -4.17,0 -13.9,16.02 -18.97,26.08 -0.8,0.79 9.73,-36.01 17.99,-43.74 2.59,-2.59 -6.02,-4.9 -7.85,-4.9 -1.35,0 -3.06,2.16 -4.92,5.63 -9.75,0.06 -19.38,-1.46 -29.17,-1.46 -7.61,0 -13.32,2.9 -13.31,11.38 0.01,3.97 2.95,4.8 4.15,3.74 0.9,-0.82 -0.65,-0.65 -0.32,-3.27 0.4,-3.51 2.86,-4.5 6.29,-4.5 3.92,0 7.69,0.41 11.53,0.9 -4.5,9.24 -10.71,25.59 -12.1,37.28 -2.29,19.7 10.95,18.64 11.12,17.58 0.16,-1.15 -3.6,-2.05 -2.29,-12.76 1.55,-13.48 9.73,-32.12 14.22,-40.71 1.99,0.21 3.97,0.32 5.99,0.41 -5.5,13.83 -10.89,33.77 -10.89,40.96 0,3.43 2.69,6.54 5.56,6.54 2.78,0 8.25,-16.84 16.26,-27.22 -7.98,23.28 2.52,39.82 14.65,16.49 0.69,6.59 5.13,11.05 12.25,11.05 12.75,0 19.7,-28.28 18.39,-28.28 -2.53,0 -8.75,22.64 -17.9,22.64 -4.64,0 -3.49,-8.17 -3.03,-11.19z"/>
  </g>
 </g>
</svg>
